<?xml version="1.0" standalone="no"?>
<!DOCTYPE svg PUBLIC "-//W3C//DTD SVG 20010904//EN"
 "http://www.w3.org/TR/2001/REC-SVG-20010904/DTD/svg10.dtd">
<svg version="1.0" xmlns="http://www.w3.org/2000/svg"
 width="1851.000000pt" height="1851.000000pt" viewBox="0 0 1851.000000 1851.000000"
 preserveAspectRatio="xMidYMid meet">
<metadata>
Created by potrace 1.14, written by Peter Selinger 2001-2017
</metadata>
<g transform="translate(0.000000,1851.000000) scale(0.100000,-0.100000)"
fill="#000000" stroke="none">
<path d="M5720 16825 c-1878 -893 -3476 -1653 -3550 -1689 -74 -36 -447 -213
-828 -394 -381 -181 -695 -332 -698 -334 -2 -3 54 -119 125 -259 647 -1268
1058 -2537 1226 -3784 66 -490 90 -901 82 -1425 -6 -383 -19 -600 -57 -924
-133 -1131 -493 -2242 -1025 -3166 -88 -153 -245 -395 -312 -483 -25 -32 -43
-60 -41 -62 2 -2 1936 -923 4298 -2045 3761 -1788 4298 -2041 4320 -2032 23 9
8572 4072 8577 4076 1 1 -38 58 -87 126 -203 285 -460 752 -638 1160 -376 860
-602 1765 -688 2760 -21 250 -30 958 -15 1228 53 936 229 1836 540 2773 196
586 435 1152 749 1774 78 153 140 281 138 282 -2 2 -349 168 -772 369 -423
202 -2330 1109 -4239 2017 l-3470 1651 -110 3 -110 2 -3415 -1624z m6690 -149
c1741 -828 3316 -1576 3500 -1663 1079 -512 1279 -608 1272 -614 -4 -4 -284
-140 -624 -302 l-616 -296 -1369 651 c-752 358 -2260 1075 -3351 1593 l-1983
943 -1952 -928 c-1074 -510 -2577 -1226 -3342 -1589 -765 -364 -1397 -663
-1405 -663 -14 -2 -1226 575 -1242 591 -5 4 323 164 729 356 405 193 2190
1041 3967 1887 1777 845 3235 1537 3241 1537 5 1 1434 -676 3175 -1503z
m-1533 -780 c895 -425 2299 -1092 3118 -1481 820 -389 1519 -722 1554 -740
l65 -32 -85 -40 c-46 -22 -363 -174 -703 -338 l-619 -297 -36 17 c-20 10 -949
451 -2066 982 -1116 531 -2218 1055 -2448 1164 l-418 200 -232 -111 c-128 -61
-1245 -593 -2484 -1181 l-2252 -1071 -695 333 c-382 184 -694 339 -693 344 0
6 703 344 1561 751 859 408 2286 1086 3171 1507 886 421 1615 766 1622 766 6
1 744 -347 1640 -773z m682 -1980 c1271 -604 2311 -1102 2311 -1105 0 -3 -314
-156 -697 -340 -620 -298 -699 -333 -722 -324 -14 5 -743 351 -1619 767
l-1593 758 -1606 -764 c-883 -419 -1613 -764 -1622 -766 -14 -2 -1385 649
-1403 666 -6 7 4620 2212 4633 2209 3 -1 1046 -497 2318 -1101z m-877 -1241
c794 -377 1446 -689 1450 -693 4 -4 -308 -159 -693 -344 l-700 -336 -745 354
c-410 195 -750 354 -755 354 -5 0 -344 -159 -754 -354 l-745 -354 -700 336
c-385 185 -700 338 -700 341 1 5 2886 1379 2898 1381 1 0 651 -308 1444 -685z
m-855 -1252 c321 -152 582 -278 580 -279 -1 -2 -265 -129 -585 -283 l-583
-280 -584 281 c-322 155 -584 283 -582 285 8 7 1152 551 1162 552 6 1 272
-123 592 -276z m-20 -3567 c314 -150 578 -278 587 -283 14 -7 -102 -67 -546
-278 -310 -147 -574 -272 -588 -277 -22 -9 -101 26 -603 265 -318 151 -580
277 -583 279 -3 4 1081 532 1162 567 1 1 258 -122 571 -273z m-1315 -805 c405
-193 741 -351 747 -351 5 0 345 159 755 354 l746 354 700 -336 c385 -185 696
-340 692 -344 -8 -8 -2762 -1321 -2852 -1360 l-45 -19 -510 243 c-280 134
-932 444 -1447 688 -516 245 -938 448 -938 451 0 9 1394 678 1405 674 6 -2
342 -161 747 -354z m-1297 -1042 c649 -308 1374 -652 1612 -765 l432 -205 363
172 c200 95 925 439 1612 766 687 326 1254 593 1261 593 11 0 1385 -657 1397
-669 3 -3 -204 -106 -460 -227 -257 -122 -1301 -618 -2320 -1103 l-1853 -881
-1832 871 c-1008 479 -2051 975 -2319 1103 -268 127 -484 234 -480 238 13 12
1377 666 1392 667 8 1 546 -251 1195 -560z m-2585 -428 c184 -88 1301 -619
2482 -1180 l2147 -1020 2068 983 c1137 540 2256 1072 2485 1180 l417 198 343
-164 c189 -91 506 -243 706 -338 204 -98 357 -177 350 -181 -84 -44 -6363
-3022 -6372 -3022 -9 1 -6365 3019 -6373 3027 -2 2 198 99 444 217 246 118
560 269 698 336 137 67 254 122 260 122 5 1 160 -71 345 -158z m1250 -2251
c1818 -865 3323 -1580 3345 -1588 l40 -15 3350 1591 3349 1592 615 -296 c339
-162 619 -299 623 -302 4 -4 -801 -392 -1790 -862 -988 -470 -2035 -967 -2327
-1106 -291 -138 -1270 -603 -2173 -1033 -904 -430 -1648 -781 -1653 -781 -5 0
-1018 480 -2251 1066 -1234 586 -3020 1435 -3971 1887 -950 451 -1724 824
-1719 829 18 18 1228 596 1242 593 8 -2 1502 -711 3320 -1575z"/>
</g>
</svg>
